<?xml version="1.0" encoding="utf-8"?>
<!-- Generator: Adobe Illustrator 21.0.0, SVG Export Plug-In . SVG Version: 6.00 Build 0)  -->
<svg version="1.1" id="Layer_1" xmlns="http://www.w3.org/2000/svg" xmlns:xlink="http://www.w3.org/1999/xlink" x="0px" y="0px"
	 viewBox="0 0 1366 768" style="enable-background:new 0 0 1366 768;" xml:space="preserve">
<style type="text/css">
	.st0{fill:#FFFFFF;}
	.st1{fill:#73628A;stroke:#73628A;}
</style>
<g>
	<g>
		<polygon class="st0" points="703.3,672.1 661.3,714 634.4,687.3 676.4,645.2 634.4,603.4 661.3,576.6 703.3,618.5 745.5,576.6 
			772.4,603.4 730.2,645.2 772.4,687.3 745.5,714 		"/>
		<g>
			<path class="st0" d="M661.3,577.8l40.9,40.7l1.1,1.1l1.1-1.1l40.9-40.7l25.7,25.6l-40.9,40.7l-1.1,1.1l1.1,1.1l40.9,40.7
				l-25.7,25.6L704.4,672l-1.1-1.1l-1.1,1.1l-40.9,40.7l-25.7-25.6l40.9-40.7l1.1-1.1l-1.1-1.1l-40.9-40.7L661.3,577.8 M661.3,575.5
				l-28,27.9l42,41.9l-42,41.9l28,27.9l42-41.9l42,41.9l28-27.9l-42-41.9l42-41.9l-28-27.9l-42,41.9L661.3,575.5L661.3,575.5z"/>
		</g>
	</g>
</g>
<g>
	<polygon class="st1" points="777.8,106.1 746.7,75 664.8,156.8 633.2,125.2 602.1,156.3 664.8,219.2 664.8,219.2 665,219.2 	"/>
</g>
<g>
	<polygon class="st1" points="791.5,356.5 760.3,325.3 678.5,407.1 646.9,375.5 615.6,406.8 678.5,469.6 678.5,469.6 678.5,469.6 	
		"/>
</g>
</svg>
