<?xml version="1.0" encoding="utf-8"?>
<!-- Generator: Adobe Illustrator 21.0.0, SVG Export Plug-In . SVG Version: 6.00 Build 0)  -->
<svg version="1.1" id="Layer_1" xmlns="http://www.w3.org/2000/svg" xmlns:xlink="http://www.w3.org/1999/xlink" x="0px" y="0px"
	 viewBox="0 0 1366 768" style="enable-background:new 0 0 1366 768;" xml:space="preserve">
<style type="text/css">
	.st0{fill:#FFFFFF;}
	.st1{fill:#73628A;stroke:#73628A;}
</style>
<g>
	<g>
		<polygon class="st0" points="719.2,554.4 693.4,580.1 676.9,563.7 702.7,537.9 676.9,512.2 693.4,495.8 719.2,521.5 745.1,495.8 
			761.6,512.2 735.7,537.9 761.6,563.7 745.1,580.1 		"/>
		<g>
			<path class="st0" d="M693.4,496.5l25.1,25l0.7,0.7l0.7-0.7l25.1-25l15.8,15.7l-25.1,25l-0.7,0.7l0.7,0.7l25.1,25l-15.8,15.7
				l-25.1-25l-0.7-0.7l-0.7,0.7l-25.1,25l-15.8-15.7l25.1-25l0.7-0.7l-0.7-0.7l-25.1-25L693.4,496.5 M693.4,495.1l-17.2,17.1
				l25.8,25.7l-25.8,25.7l17.2,17.1l25.8-25.7l25.8,25.7l17.2-17.1l-25.8-25.7l25.8-25.7l-17.2-17.1l-25.8,25.7L693.4,495.1
				L693.4,495.1z"/>
		</g>
	</g>
</g>
<g>
	<polygon class="st1" points="764.9,207.1 745.8,188 695.6,238.2 676.2,218.8 657.1,237.9 695.6,276.5 695.6,276.5 695.7,276.5 	"/>
</g>
<g>
	<polygon class="st1" points="773.3,360.7 754.2,341.6 704,391.8 684.6,372.4 665.4,391.6 704,430.1 704,430.1 704,430.1 	"/>
</g>
</svg>
