<?xml version="1.0" encoding="utf-8"?>
<!-- Generator: Adobe Illustrator 21.0.0, SVG Export Plug-In . SVG Version: 6.00 Build 0)  -->
<svg version="1.1" id="Layer_1" xmlns="http://www.w3.org/2000/svg" xmlns:xlink="http://www.w3.org/1999/xlink" x="0px" y="0px"
	 viewBox="0 0 1366 768" style="enable-background:new 0 0 1366 768;" xml:space="preserve">
<style type="text/css">
	.st0{fill:#73628A;stroke:#73628A;stroke-miterlimit:10;}
	.st1{fill:#FFFFFF;stroke:#FFFFFF;stroke-miterlimit:10;}
	.st2{fill:#FFFFFF;stroke:#FFFFFF;stroke-width:0.65;}
</style>
<g>
	<path class="st0" d="M652.3,321.7c0,17.8,14.6,32.3,32.5,32.3c18,0,32.6-14.5,32.6-32.3c0-17.8-14.6-32.3-32.6-32.3
		C666.9,289.4,652.3,303.8,652.3,321.7z"/>
</g>
<g>
	<ellipse class="st0" cx="684.6" cy="425.8" rx="44.1" ry="61.8"/>
	<path class="st0" d="M716.6,487.3h-64.1c-6.6,0-12-5.4-12-12v-47.4c0-6.6,5.4-12,12-12h64.1c6.6,0,12,5.4,12,12v47.4
		C728.6,481.9,723.2,487.3,716.6,487.3z"/>
</g>
<g>
	<ellipse class="st1" cx="583.6" cy="425.8" rx="44.1" ry="61.8"/>
	<path class="st1" d="M615.6,487.3h-64.1c-6.6,0-12-5.4-12-12v-47.4c0-6.6,5.4-12,12-12h64.1c6.6,0,12,5.4,12,12v47.4
		C627.6,481.9,622.2,487.3,615.6,487.3z"/>
</g>
<g>
	<ellipse class="st1" cx="785.6" cy="425.8" rx="44.1" ry="61.8"/>
	<path class="st1" d="M817.6,487.3h-64.1c-6.6,0-12-5.4-12-12v-47.4c0-6.6,5.4-12,12-12h64.1c6.6,0,12,5.4,12,12v47.4
		C829.6,481.9,824.2,487.3,817.6,487.3z"/>
</g>
<g>
	<path class="st2" d="M753.3,321.7c0,17.8,14.6,32.3,32.5,32.3c18,0,32.6-14.5,32.6-32.3c0-17.8-14.6-32.3-32.6-32.3
		C767.9,289.4,753.3,303.8,753.3,321.7z"/>
</g>
<g>
	<path class="st2" d="M551.3,321.7c0,17.8,14.6,32.3,32.5,32.3c18,0,32.6-14.5,32.6-32.3c0-17.8-14.6-32.3-32.6-32.3
		C565.9,289.4,551.3,303.8,551.3,321.7z"/>
</g>
</svg>
