<?xml version="1.0" encoding="utf-8"?>
<!-- Generator: Adobe Illustrator 21.0.0, SVG Export Plug-In . SVG Version: 6.00 Build 0)  -->
<svg version="1.1" id="Layer_1" xmlns="http://www.w3.org/2000/svg" xmlns:xlink="http://www.w3.org/1999/xlink" x="0px" y="0px"
	 viewBox="0 0 1366 768" style="enable-background:new 0 0 1366 768;" xml:space="preserve">
<style type="text/css">
	.st0{fill:#73628A;stroke:#73628A;stroke-miterlimit:10;}
	.st1{fill:#FFFFFF;stroke:#FFFFFF;stroke-miterlimit:10;}
	.st2{fill:#FFFFFF;stroke:#FFFFFF;stroke-width:0.65;}
</style>
<g>
	<path class="st0" d="M609.7,215.2c0,46.4,38.8,84.2,86.3,84.2c47.8,0,86.5-37.8,86.5-84.2S743.7,131,696,131
		C648.5,131,609.7,168.5,609.7,215.2z"/>
</g>
<g>
	<ellipse class="st0" cx="695.4" cy="486.5" rx="117.1" ry="161.1"/>
	<path class="st0" d="M780.4,646.8H610.2c-17.5,0-31.9-14.1-31.9-31.3V492c0-17.2,14.3-31.3,31.9-31.3h170.1
		c17.5,0,31.9,14.1,31.9,31.3v123.5C812.2,632.7,797.9,646.8,780.4,646.8z"/>
</g>
<g>
	<ellipse class="st1" cx="427.3" cy="486.5" rx="117.1" ry="161.1"/>
	<path class="st1" d="M512.3,646.8H342.1c-17.5,0-31.9-14.1-31.9-31.3V492c0-17.2,14.3-31.3,31.9-31.3h170.1
		c17.5,0,31.9,14.1,31.9,31.3v123.5C544.1,632.7,529.8,646.8,512.3,646.8z"/>
</g>
<g>
	<ellipse class="st1" cx="963.5" cy="486.5" rx="117.1" ry="161.1"/>
	<path class="st1" d="M1048.5,646.8H878.3c-17.5,0-31.9-14.1-31.9-31.3V492c0-17.2,14.3-31.3,31.9-31.3h170.1
		c17.5,0,31.9,14.1,31.9,31.3v123.5C1080.3,632.7,1066,646.8,1048.5,646.8z"/>
</g>
<g>
	<path class="st2" d="M877.8,215.2c0,46.4,38.8,84.2,86.3,84.2c47.8,0,86.5-37.8,86.5-84.2s-38.8-84.2-86.5-84.2
		C916.5,131,877.8,168.5,877.8,215.2z"/>
</g>
<g>
	<path class="st2" d="M341.6,215.2c0,46.4,38.8,84.2,86.3,84.2c47.8,0,86.5-37.8,86.5-84.2S475.7,131,427.9,131
		C380.4,131,341.6,168.5,341.6,215.2z"/>
</g>
</svg>
